<svg width="12" height="12" viewBox="0 0 12 12" fill="none" xmlns="http://www.w3.org/2000/svg">
<g clip-path="url(#clip0_2_48)">
<path d="M2.25 0C1.42266 0 0.75 0.672656 0.75 1.5V10.5C0.75 11.3273 1.42266 12 2.25 12H9C9.82734 12 10.5 11.3273 10.5 10.5V1.5C10.5 0.672656 9.82734 0 9 0H2.25ZM4.875 6.75H6.375C7.41094 6.75 8.25 7.58906 8.25 8.625C8.25 8.83125 8.08125 9 7.875 9H3.375C3.16875 9 3 8.83125 3 8.625C3 7.58906 3.83906 6.75 4.875 6.75ZM4.125 4.5C4.125 4.10218 4.28304 3.72064 4.56434 3.43934C4.84564 3.15804 5.22718 3 5.625 3C6.02282 3 6.40436 3.15804 6.68566 3.43934C6.96696 3.72064 7.125 4.10218 7.125 4.5C7.125 4.89782 6.96696 5.27936 6.68566 5.56066C6.40436 5.84196 6.02282 6 5.625 6C5.22718 6 4.84564 5.84196 4.56434 5.56066C4.28304 5.27936 4.125 4.89782 4.125 4.5ZM12 1.875C12 1.66875 11.8313 1.5 11.625 1.5C11.4187 1.5 11.25 1.66875 11.25 1.875V3.375C11.25 3.58125 11.4187 3.75 11.625 3.75C11.8313 3.75 12 3.58125 12 3.375V1.875ZM11.625 4.5C11.4187 4.5 11.25 4.66875 11.25 4.875V6.375C11.25 6.58125 11.4187 6.75 11.625 6.75C11.8313 6.75 12 6.58125 12 6.375V4.875C12 4.66875 11.8313 4.5 11.625 4.5ZM12 7.875C12 7.66875 11.8313 7.5 11.625 7.5C11.4187 7.5 11.25 7.66875 11.25 7.875V9.375C11.25 9.58125 11.4187 9.75 11.625 9.75C11.8313 9.75 12 9.58125 12 9.375V7.875Z" fill="#F9BC50"/>
</g>
<defs>
<clipPath id="clip0_2_48">
<rect width="12" height="12" fill="white"/>
</clipPath>
</defs>
</svg>
