<svg width="20" height="20" viewBox="0 0 20 20" fill="none" xmlns="http://www.w3.org/2000/svg">
<path d="M9.75 1.25C9.33438 1.25 9 1.66797 9 2.1875C9 2.70703 9.33438 3.125 9.75 3.125H10.5531L11.6344 5.625H6.96562L6.10938 4.14062C5.96875 3.89453 5.74062 3.75 5.5 3.75H3.75C3.33437 3.75 3 4.16797 3 4.6875C3 5.20703 3.33437 5.625 3.75 5.625H5.11562L5.80625 6.82422L4.975 8.89844C4.6625 8.80078 4.33437 8.75 4 8.75C1.79063 8.75 0 10.9883 0 13.75C0 16.5117 1.79063 18.75 4 18.75C6.04063 18.75 7.72188 16.8398 7.96875 14.375H9.5C9.76562 14.375 10.0094 14.1992 10.1469 13.9141L12.7969 8.30859L13.475 9.875C12.575 10.793 12 12.1875 12 13.75C12 16.5117 13.7906 18.75 16 18.75C18.2094 18.75 20 16.5117 20 13.75C20 10.9883 18.2094 8.75 16 8.75C15.5781 8.75 15.1719 8.83203 14.7906 8.98438L11.7312 1.90625C11.5562 1.5 11.2188 1.25 10.85 1.25H9.75ZM14.3313 11.8633L15.3406 14.1953C15.5375 14.6523 15.9938 14.8203 16.3563 14.5742C16.7188 14.3281 16.8562 13.7578 16.6594 13.3047L15.65 10.9727C15.7625 10.9492 15.8813 10.9375 16 10.9375C17.2437 10.9375 18.25 12.1953 18.25 13.75C18.25 15.3047 17.2437 16.5625 16 16.5625C14.7563 16.5625 13.75 15.3047 13.75 13.75C13.75 13.0234 13.9688 12.3633 14.3313 11.8633ZM4.1625 14.375H6.19375C5.96562 15.6289 5.06875 16.5625 4 16.5625C2.75625 16.5625 1.75 15.3047 1.75 13.75C1.75 12.1953 2.75625 10.9375 4 10.9375C4.05312 10.9375 4.10625 10.9414 4.15938 10.9453L3.40313 12.8398C3.12188 13.5469 3.53125 14.3789 4.1625 14.3789V14.375ZM5.21562 12.5L6.8 8.54297L9.07812 12.4961L9.075 12.5H5.2125H5.21562ZM8.04688 7.5H11.4344L9.90625 10.7344L8.04375 7.5H8.04688Z" fill="#4E5F60"/>
</svg>
