<svg width="20" height="20" viewBox="0 0 20 20" fill="none" xmlns="http://www.w3.org/2000/svg">
<path d="M10.0002 0C14.6669 0 17.778 1.375 17.778 3.125V3.75V5C18.3926 5 18.8891 5.55859 18.8891 6.25V8.75C18.8891 9.44141 18.3926 10 17.778 10V16.25C17.778 16.9414 17.2815 17.5 16.6669 17.5V18.75C16.6669 19.4414 16.1704 20 15.5558 20H14.4447C13.8301 20 13.3336 19.4414 13.3336 18.75V17.5H6.66688V18.75C6.66688 19.4414 6.17036 20 5.55577 20H4.44466C3.83008 20 3.33355 19.4414 3.33355 18.75V17.5C2.71897 17.5 2.22244 16.9414 2.22244 16.25V10C1.60786 10 1.11133 9.44141 1.11133 8.75V6.25C1.11133 5.55859 1.60786 5 2.22244 5V3.75V3.125C2.22244 1.375 5.33355 0 10.0002 0ZM4.44466 6.25V10C4.44466 10.6914 4.94119 11.25 5.55577 11.25H9.44466V5H5.55577C4.94119 5 4.44466 5.55859 4.44466 6.25ZM10.5558 11.25H14.4447C15.0592 11.25 15.5558 10.6914 15.5558 10V6.25C15.5558 5.55859 15.0592 5 14.4447 5H10.5558V11.25ZM5.00022 15.625C5.2949 15.625 5.57752 15.4933 5.78589 15.2589C5.99427 15.0245 6.11133 14.7065 6.11133 14.375C6.11133 14.0435 5.99427 13.7255 5.78589 13.4911C5.57752 13.2567 5.2949 13.125 5.00022 13.125C4.70553 13.125 4.42292 13.2567 4.21454 13.4911C4.00617 13.7255 3.88911 14.0435 3.88911 14.375C3.88911 14.7065 4.00617 15.0245 4.21454 15.2589C4.42292 15.4933 4.70553 15.625 5.00022 15.625ZM15.0002 15.625C15.2949 15.625 15.5775 15.4933 15.7859 15.2589C15.9943 15.0245 16.1113 14.7065 16.1113 14.375C16.1113 14.0435 15.9943 13.7255 15.7859 13.4911C15.5775 13.2567 15.2949 13.125 15.0002 13.125C14.7055 13.125 14.4229 13.2567 14.2145 13.4911C14.0062 13.7255 13.8891 14.0435 13.8891 14.375C13.8891 14.7065 14.0062 15.0245 14.2145 15.2589C14.4229 15.4933 14.7055 15.625 15.0002 15.625ZM13.3336 3.125C13.3336 2.78125 13.0836 2.5 12.778 2.5H7.22244C6.91688 2.5 6.66688 2.78125 6.66688 3.125C6.66688 3.46875 6.91688 3.75 7.22244 3.75H12.778C13.0836 3.75 13.3336 3.46875 13.3336 3.125Z" fill="#4E5F60"/>
</svg>
