<svg width="12" height="12" viewBox="0 0 12 12" fill="none" xmlns="http://www.w3.org/2000/svg">
<g clip-path="url(#clip0_2_44)">
<path d="M3.42857 0C3.90268 0 4.28571 0.335156 4.28571 0.75V1.5H7.71429V0.75C7.71429 0.335156 8.09732 0 8.57143 0C9.04554 0 9.42857 0.335156 9.42857 0.75V1.5H10.7143C11.4241 1.5 12 2.00391 12 2.625V3.75H0V2.625C0 2.00391 0.575893 1.5 1.28571 1.5H2.57143V0.75C2.57143 0.335156 2.95446 0 3.42857 0ZM0 4.5H12V10.875C12 11.4961 11.4241 12 10.7143 12H1.28571C0.575893 12 0 11.4961 0 10.875V4.5ZM1.71429 6.375V7.125C1.71429 7.33125 1.90714 7.5 2.14286 7.5H3C3.23571 7.5 3.42857 7.33125 3.42857 7.125V6.375C3.42857 6.16875 3.23571 6 3 6H2.14286C1.90714 6 1.71429 6.16875 1.71429 6.375ZM5.14286 6.375V7.125C5.14286 7.33125 5.33571 7.5 5.57143 7.5H6.42857C6.66429 7.5 6.85714 7.33125 6.85714 7.125V6.375C6.85714 6.16875 6.66429 6 6.42857 6H5.57143C5.33571 6 5.14286 6.16875 5.14286 6.375ZM9 6C8.76429 6 8.57143 6.16875 8.57143 6.375V7.125C8.57143 7.33125 8.76429 7.5 9 7.5H9.85714C10.0929 7.5 10.2857 7.33125 10.2857 7.125V6.375C10.2857 6.16875 10.0929 6 9.85714 6H9ZM1.71429 9.375V10.125C1.71429 10.3313 1.90714 10.5 2.14286 10.5H3C3.23571 10.5 3.42857 10.3313 3.42857 10.125V9.375C3.42857 9.16875 3.23571 9 3 9H2.14286C1.90714 9 1.71429 9.16875 1.71429 9.375ZM5.57143 9C5.33571 9 5.14286 9.16875 5.14286 9.375V10.125C5.14286 10.3313 5.33571 10.5 5.57143 10.5H6.42857C6.66429 10.5 6.85714 10.3313 6.85714 10.125V9.375C6.85714 9.16875 6.66429 9 6.42857 9H5.57143ZM8.57143 9.375V10.125C8.57143 10.3313 8.76429 10.5 9 10.5H9.85714C10.0929 10.5 10.2857 10.3313 10.2857 10.125V9.375C10.2857 9.16875 10.0929 9 9.85714 9H9C8.76429 9 8.57143 9.16875 8.57143 9.375Z" fill="#F9BC50"/>
</g>
<defs>
<clipPath id="clip0_2_44">
<rect width="12" height="12" fill="white"/>
</clipPath>
</defs>
</svg>
