<svg width="74" height="74" viewBox="0 0 74 74" fill="none" xmlns="http://www.w3.org/2000/svg">
<circle cx="37" cy="37" r="36.5" fill="#4E5F60" stroke="#F9BC50"/>
<g clip-path="url(#clip0_3_107)">
<path d="M38.0067 30.2617C33.7478 30.2617 30.3125 33.2676 30.3125 36.9941C30.3125 40.7207 33.7478 43.7266 38.0067 43.7266C42.2656 43.7266 45.7009 40.7207 45.7009 36.9941C45.7009 33.2676 42.2656 30.2617 38.0067 30.2617ZM38.0067 41.3711C35.2545 41.3711 33.0044 39.4082 33.0044 36.9941C33.0044 34.5801 35.2478 32.6172 38.0067 32.6172C40.7656 32.6172 43.0089 34.5801 43.0089 36.9941C43.0089 39.4082 40.7589 41.3711 38.0067 41.3711ZM47.8103 29.9863C47.8103 30.8594 47.0067 31.5566 46.0156 31.5566C45.0178 31.5566 44.221 30.8535 44.221 29.9863C44.221 29.1191 45.0245 28.416 46.0156 28.416C47.0067 28.416 47.8103 29.1191 47.8103 29.9863ZM52.9062 31.5801C52.7924 29.4766 52.2433 27.6133 50.4821 26.0781C48.7277 24.543 46.5982 24.0625 44.1942 23.957C41.7165 23.834 34.2902 23.834 31.8125 23.957C29.4152 24.0566 27.2857 24.5371 25.5245 26.0723C23.7634 27.6074 23.221 29.4707 23.1004 31.5742C22.9598 33.7422 22.9598 40.2402 23.1004 42.4082C23.2143 44.5117 23.7634 46.375 25.5245 47.9102C27.2857 49.4453 29.4085 49.9258 31.8125 50.0312C34.2902 50.1543 41.7165 50.1543 44.1942 50.0312C46.5982 49.9316 48.7277 49.4512 50.4821 47.9102C52.2366 46.375 52.7857 44.5117 52.9062 42.4082C53.0469 40.2402 53.0469 33.748 52.9062 31.5801ZM49.7053 44.7344C49.183 45.8828 48.1719 46.7676 46.8527 47.2305C44.8772 47.916 40.1897 47.7578 38.0067 47.7578C35.8236 47.7578 31.1295 47.9102 29.1607 47.2305C27.8482 46.7734 26.837 45.8887 26.308 44.7344C25.5245 43.0059 25.7053 38.9043 25.7053 36.9941C25.7053 35.084 25.5312 30.9766 26.308 29.2539C26.8303 28.1055 27.8415 27.2207 29.1607 26.7578C31.1361 26.0723 35.8236 26.2305 38.0067 26.2305C40.1897 26.2305 44.8839 26.0781 46.8527 26.7578C48.1652 27.2148 49.1763 28.0996 49.7053 29.2539C50.4888 30.9824 50.308 35.084 50.308 36.9941C50.308 38.9043 50.4888 43.0117 49.7053 44.7344Z" fill="#F9BC50"/>
</g>
<defs>
<clipPath id="clip0_3_107">
<rect width="30" height="30" fill="white" transform="translate(23 22)"/>
</clipPath>
</defs>
</svg>
