<svg width="45" height="45" viewBox="0 0 45 45" fill="none" xmlns="http://www.w3.org/2000/svg">
<rect x="0.5" y="0.5" width="44" height="44" fill="#4E5F60" stroke="#F9BC50"/>
<g clip-path="url(#clip0_3_104)">
<path d="M24.043 34.375C27.3828 31.2402 35 23.6426 35 19.375C35 14.1992 29.401 10 22.5 10C15.599 10 10 14.1992 10 19.375C10 23.6426 17.6172 31.2402 20.957 34.375C21.7578 35.1221 23.2422 35.1221 24.043 34.375ZM22.5 16.25C23.6051 16.25 24.6649 16.5792 25.4463 17.1653C26.2277 17.7513 26.6667 18.5462 26.6667 19.375C26.6667 20.2038 26.2277 20.9987 25.4463 21.5847C24.6649 22.1708 23.6051 22.5 22.5 22.5C21.3949 22.5 20.3351 22.1708 19.5537 21.5847C18.7723 20.9987 18.3333 20.2038 18.3333 19.375C18.3333 18.5462 18.7723 17.7513 19.5537 17.1653C20.3351 16.5792 21.3949 16.25 22.5 16.25Z" fill="#F9BC50"/>
</g>
<defs>
<clipPath id="clip0_3_104">
<rect width="25" height="25" fill="white" transform="translate(10 10)"/>
</clipPath>
</defs>
</svg>
