<svg width="74" height="74" viewBox="0 0 74 74" fill="none" xmlns="http://www.w3.org/2000/svg">
<circle cx="37" cy="37" r="36.5" fill="#4E5F60" stroke="#F9BC50"/>
<g clip-path="url(#clip0_3_108)">
<path d="M51.5312 37C51.5312 28.9727 45.0273 22.4688 37 22.4688C28.9727 22.4688 22.4688 28.9727 22.4688 37C22.4688 44.2527 27.7826 50.2645 34.7295 51.3555V41.2006H31.0381V37H34.7295V33.7984C34.7295 30.1568 36.8975 28.1453 40.218 28.1453C41.8082 28.1453 43.4711 28.4289 43.4711 28.4289V32.0031H41.6383C39.8336 32.0031 39.2705 33.1234 39.2705 34.2725V37H43.3006L42.6561 41.2006H39.2705V51.3555C46.2174 50.2645 51.5312 44.2527 51.5312 37Z" fill="#F9BC50"/>
</g>
<defs>
<clipPath id="clip0_3_108">
<rect width="30" height="30" fill="white" transform="translate(22 22)"/>
</clipPath>
</defs>
</svg>
