<svg width="74" height="74" viewBox="0 0 74 74" fill="none" xmlns="http://www.w3.org/2000/svg">
<circle cx="37" cy="37" r="36.5" fill="#4E5F60" stroke="#F9BC50"/>
<path d="M48.9162 30.8897C48.9353 31.1562 48.9353 31.4227 48.9353 31.6892C48.9353 39.8173 42.7488 49.1828 31.4416 49.1828C27.9581 49.1828 24.7221 48.1739 22 46.4227C22.4949 46.4798 22.9708 46.4988 23.4848 46.4988C26.3591 46.4988 29.0051 45.528 31.118 43.872C28.415 43.8148 26.1497 42.0445 25.3693 39.608C25.75 39.665 26.1307 39.7031 26.5305 39.7031C27.0825 39.7031 27.6346 39.627 28.1485 39.4938C25.3312 38.9227 23.2182 36.4481 23.2182 33.4595V33.3834C24.0367 33.8402 24.9886 34.1258 25.9974 34.1638C24.3413 33.0597 23.2563 31.1752 23.2563 29.0432C23.2563 27.9011 23.5608 26.8542 24.0938 25.9404C27.1205 29.6714 31.67 32.1079 36.7715 32.3745C36.6763 31.9176 36.6192 31.4418 36.6192 30.9659C36.6192 27.5775 39.3603 24.8174 42.7677 24.8174C44.538 24.8174 46.1369 25.5598 47.2601 26.759C48.6496 26.4925 49.9821 25.9785 51.1623 25.2742C50.7054 26.7019 49.7346 27.9012 48.4593 28.6625C49.6966 28.5294 50.8959 28.1866 51.9999 27.7108C51.1625 28.929 50.1154 30.014 48.9162 30.8897Z" fill="#F9BC50"/>
</svg>
