<svg width="45" height="45" viewBox="0 0 45 45" fill="none" xmlns="http://www.w3.org/2000/svg">
<rect x="0.5" y="0.5" width="44" height="44" fill="#4E5F60" stroke="#F9BC50"/>
<g clip-path="url(#clip0_3_103)">
<path d="M18.0518 10.2011C17.6758 9.29285 16.6846 8.80945 15.7373 9.06824L11.4404 10.2401C10.5908 10.4745 10 11.246 10 12.1249C10 24.205 19.7949 33.9999 31.875 33.9999C32.7539 33.9999 33.5254 33.4091 33.7598 32.5594L34.9316 28.2626C35.1904 27.3153 34.707 26.3241 33.7988 25.9481L29.1113 23.995C28.3154 23.663 27.3926 23.8925 26.8506 24.5614L24.8779 26.9686C21.4404 25.3427 18.6572 22.5595 17.0312 19.122L19.4385 17.1542C20.1074 16.6073 20.3369 15.6893 20.0049 14.8934L18.0518 10.2059V10.2011Z" fill="#F9BC50"/>
</g>
<defs>
<clipPath id="clip0_3_103">
<rect width="25" height="25" fill="white" transform="translate(10 9)"/>
</clipPath>
</defs>
</svg>
