<svg width="45" height="45" viewBox="0 0 45 45" fill="none" xmlns="http://www.w3.org/2000/svg">
<rect x="0.5" y="0.5" width="44" height="44" fill="#4E5F60" stroke="#F9BC50"/>
<path d="M12.3438 13.125C11.0498 13.125 10 14.1748 10 15.4688C10 16.2061 10.3467 16.8994 10.9375 17.3437L21.5625 25.3125C22.1191 25.7275 22.8809 25.7275 23.4375 25.3125L34.0625 17.3437C34.6533 16.8994 35 16.2061 35 15.4688C35 14.1748 33.9502 13.125 32.6562 13.125H12.3438ZM10 18.5938V28.75C10 30.4736 11.4014 31.875 13.125 31.875H31.875C33.5986 31.875 35 30.4736 35 28.75V18.5938L24.375 26.5625C23.2617 27.3975 21.7383 27.3975 20.625 26.5625L10 18.5938Z" fill="#F9BC50"/>
</svg>
