<svg width="20" height="20" viewBox="0 0 20 20" fill="none" xmlns="http://www.w3.org/2000/svg">
<path d="M19.6389 1.41407C19.8646 1.58985 20 1.87891 20 2.18751V15.3125C20 15.7031 19.7847 16.0508 19.4618 16.1875L13.6285 18.6875C13.4479 18.7656 13.25 18.7695 13.0694 18.6992L6.68403 16.3086L1.12847 18.6914C0.871528 18.8008 0.583333 18.7617 0.357639 18.5859C0.131944 18.4102 0 18.1211 0 17.8125V4.68751C0 4.29688 0.211806 3.94923 0.538194 3.81251L6.37153 1.31251C6.55208 1.23438 6.75 1.23048 6.93056 1.30079L13.316 3.69141L18.8715 1.3086C19.1285 1.19923 19.4167 1.23829 19.6424 1.41407H19.6389ZM1.66667 5.33204V16.4531L5.83333 14.668V3.54688L1.66667 5.33204ZM12.5 16.5117V5.36329L7.5 3.48829V14.6367L12.5 16.5117ZM14.1667 16.4531L18.3333 14.668V3.54688L14.1667 5.33204V16.4531Z" fill="#4E5F60"/>
</svg>
