<svg width="60" height="60" viewBox="0 0 60 60" fill="none" xmlns="http://www.w3.org/2000/svg">
<path d="M34.2857 9.375C34.2857 7.30078 32.3705 5.625 30 5.625C27.6294 5.625 25.7143 7.30078 25.7143 9.375V26.25H6.42854C4.058 26.25 2.14282 27.9258 2.14282 30C2.14282 32.0742 4.058 33.75 6.42854 33.75H25.7143V50.625C25.7143 52.6992 27.6294 54.375 30 54.375C32.3705 54.375 34.2857 52.6992 34.2857 50.625V33.75H53.5714C55.9419 33.75 57.8571 32.0742 57.8571 30C57.8571 27.9258 55.9419 26.25 53.5714 26.25H34.2857V9.375Z" fill="#F9BC50"/>
</svg>
