<svg width="20" height="20" viewBox="0 0 20 20" fill="none" xmlns="http://www.w3.org/2000/svg">
<g clip-path="url(#clip0_15_215)">
<path d="M4.28571 0C1.91964 0 0 1.67969 0 3.75V13.75C0 15.625 1.57143 17.1758 3.62054 17.457L1.56696 19.2539C1.25446 19.5273 1.47768 20 1.91964 20H3.69196C4.07143 20 4.43304 19.8672 4.70089 19.6328L7.14286 17.5H12.8571L15.2946 19.6328C15.5625 19.8672 15.9241 20 16.3036 20H18.0804C18.5268 20 18.75 19.5273 18.433 19.2539L16.3795 17.457C18.433 17.1797 20 15.625 20 13.75V3.75C20 1.67969 18.0804 0 15.7143 0H4.28571ZM2.85714 5C2.85714 4.30859 3.49554 3.75 4.28571 3.75H7.85714C8.64732 3.75 9.28571 4.30859 9.28571 5V8.75C9.28571 9.44141 8.64732 10 7.85714 10H4.28571C3.49554 10 2.85714 9.44141 2.85714 8.75V5ZM12.1429 3.75H15.7143C16.5045 3.75 17.1429 4.30859 17.1429 5V8.75C17.1429 9.44141 16.5045 10 15.7143 10H12.1429C11.3527 10 10.7143 9.44141 10.7143 8.75V5C10.7143 4.30859 11.3527 3.75 12.1429 3.75ZM2.85714 13.75C2.85714 13.4185 3.00765 13.1005 3.27556 12.8661C3.54347 12.6317 3.90683 12.5 4.28571 12.5C4.6646 12.5 5.02796 12.6317 5.29587 12.8661C5.56378 13.1005 5.71429 13.4185 5.71429 13.75C5.71429 14.0815 5.56378 14.3995 5.29587 14.6339C5.02796 14.8683 4.6646 15 4.28571 15C3.90683 15 3.54347 14.8683 3.27556 14.6339C3.00765 14.3995 2.85714 14.0815 2.85714 13.75ZM15.7143 12.5C16.0932 12.5 16.4565 12.6317 16.7244 12.8661C16.9923 13.1005 17.1429 13.4185 17.1429 13.75C17.1429 14.0815 16.9923 14.3995 16.7244 14.6339C16.4565 14.8683 16.0932 15 15.7143 15C15.3354 15 14.972 14.8683 14.7041 14.6339C14.4362 14.3995 14.2857 14.0815 14.2857 13.75C14.2857 13.4185 14.4362 13.1005 14.7041 12.8661C14.972 12.6317 15.3354 12.5 15.7143 12.5Z" fill="#4E5F60"/>
</g>
<defs>
<clipPath id="clip0_15_215">
<rect width="20" height="20" fill="white"/>
</clipPath>
</defs>
</svg>
